<svg width="294" height="92" viewBox="0 0 294 92" fill="none" xmlns="http://www.w3.org/2000/svg">
<path d="M39.2727 34.5625C38.9148 33.3182 38.4119 32.2187 37.7642 31.2642C37.1165 30.2926 36.3239 29.4744 35.3864 28.8097C34.4659 28.1278 33.4091 27.608 32.2159 27.25C31.0398 26.892 29.7358 26.7131 28.304 26.7131C25.6278 26.7131 23.2756 27.3778 21.2472 28.7074C19.2358 30.0369 17.6676 31.9716 16.5426 34.5114C15.4176 37.0341 14.8551 40.1193 14.8551 43.767C14.8551 47.4148 15.4091 50.517 16.517 53.0739C17.625 55.6307 19.1932 57.5824 21.2216 58.929C23.25 60.2585 25.6449 60.9233 28.4062 60.9233C30.9119 60.9233 33.0511 60.4801 34.8239 59.5938C36.6136 58.6903 37.9773 57.4205 38.9148 55.7841C39.8693 54.1477 40.3466 52.2131 40.3466 49.9801L42.5966 50.3125H29.0966V41.9773H51.0085V48.5739C51.0085 53.1761 50.0369 57.1307 48.0938 60.4375C46.1506 63.7273 43.4744 66.267 40.0653 68.0568C36.6562 69.8295 32.7528 70.7159 28.3551 70.7159C23.446 70.7159 19.1335 69.6335 15.4176 67.4688C11.7017 65.2869 8.80398 62.1932 6.72443 58.1875C4.66193 54.1648 3.63068 49.392 3.63068 43.8693C3.63068 39.625 4.24432 35.8409 5.47159 32.517C6.71591 29.1761 8.45455 26.3466 10.6875 24.0284C12.9205 21.7102 15.5199 19.946 18.4858 18.7358C21.4517 17.5256 24.6648 16.9205 28.125 16.9205C31.0909 16.9205 33.8523 17.3551 36.4091 18.2244C38.9659 19.0767 41.233 20.2869 43.2102 21.8551C45.2045 23.4233 46.8324 25.2898 48.0938 27.4545C49.3551 29.6023 50.1648 31.9716 50.5227 34.5625H39.2727ZM165.126 85.5455C161.597 85.5455 158.572 85.0597 156.049 84.0881C153.543 83.1335 151.549 81.8295 150.066 80.1761C148.583 78.5227 147.62 76.6648 147.177 74.6023L157.251 73.2472C157.558 74.0313 158.043 74.7642 158.708 75.446C159.373 76.1278 160.251 76.6733 161.342 77.0824C162.45 77.5085 163.796 77.7216 165.381 77.7216C167.751 77.7216 169.702 77.142 171.237 75.983C172.788 74.8409 173.563 72.9233 173.563 70.2301V63.0455H173.103C172.626 64.1364 171.91 65.1676 170.955 66.1392C170.001 67.1108 168.773 67.9034 167.273 68.517C165.773 69.1307 163.984 69.4375 161.904 69.4375C158.955 69.4375 156.271 68.7557 153.85 67.392C151.447 66.0114 149.529 63.9062 148.097 61.0767C146.683 58.2301 145.975 54.6335 145.975 50.2869C145.975 45.8381 146.7 42.1222 148.148 39.1392C149.597 36.1562 151.523 33.9233 153.927 32.4403C156.347 30.9574 158.998 30.2159 161.879 30.2159C164.077 30.2159 165.918 30.5909 167.401 31.3409C168.884 32.0739 170.077 32.9943 170.981 34.1023C171.901 35.1932 172.609 36.267 173.103 37.3239H173.512V30.7273H184.327V70.3835C184.327 73.7244 183.509 76.5199 181.873 78.7699C180.237 81.0199 177.969 82.7074 175.072 83.8324C172.191 84.9744 168.876 85.5455 165.126 85.5455ZM165.356 61.2557C167.112 61.2557 168.594 60.821 169.805 59.9517C171.032 59.0653 171.969 57.804 172.617 56.1676C173.282 54.5142 173.614 52.5369 173.614 50.2358C173.614 47.9347 173.29 45.9403 172.643 44.2528C171.995 42.5483 171.058 41.2273 169.83 40.2898C168.603 39.3523 167.112 38.8835 165.356 38.8835C163.566 38.8835 162.058 39.3693 160.83 40.3409C159.603 41.2955 158.674 42.625 158.043 44.3295C157.413 46.0341 157.097 48.0028 157.097 50.2358C157.097 52.5028 157.413 54.4631 158.043 56.1165C158.691 57.7528 159.62 59.0227 160.83 59.9261C162.058 60.8125 163.566 61.2557 165.356 61.2557Z" fill="#1F86FF"/>
<path d="M76.8643 70.767C72.8928 70.767 69.4581 69.9233 66.5604 68.2358C63.6797 66.5312 61.4553 64.1619 59.8871 61.1278C58.3189 58.0767 57.5348 54.5398 57.5348 50.517C57.5348 46.4602 58.3189 42.9148 59.8871 39.8807C61.4553 36.8295 63.6797 34.4602 66.5604 32.7727C69.4581 31.0682 72.8928 30.2159 76.8643 30.2159C80.8359 30.2159 84.2621 31.0682 87.1428 32.7727C90.0405 34.4602 92.2734 36.8295 93.8416 39.8807C95.4098 42.9148 96.1939 46.4602 96.1939 50.517C96.1939 54.5398 95.4098 58.0767 93.8416 61.1278C92.2734 64.1619 90.0405 66.5312 87.1428 68.2358C84.2621 69.9233 80.8359 70.767 76.8643 70.767ZM76.9155 62.3295C78.7223 62.3295 80.2308 61.8182 81.4411 60.7955C82.6513 59.7557 83.5632 58.3409 84.1768 56.5511C84.8075 54.7614 85.1229 52.7244 85.1229 50.4403C85.1229 48.1562 84.8075 46.1193 84.1768 44.3295C83.5632 42.5398 82.6513 41.125 81.4411 40.0852C80.2308 39.0455 78.7223 38.5256 76.9155 38.5256C75.0916 38.5256 73.5575 39.0455 72.3132 40.0852C71.0859 41.125 70.157 42.5398 69.5263 44.3295C68.9126 46.1193 68.6058 48.1562 68.6058 50.4403C68.6058 52.7244 68.9126 54.7614 69.5263 56.5511C70.157 58.3409 71.0859 59.7557 72.3132 60.7955C73.5575 61.8182 75.0916 62.3295 76.9155 62.3295Z" fill="#E42418"/>
<path d="M121.021 70.767C117.049 70.767 113.614 69.9233 110.717 68.2358C107.836 66.5312 105.612 64.1619 104.043 61.1278C102.475 58.0767 101.691 54.5398 101.691 50.517C101.691 46.4602 102.475 42.9148 104.043 39.8807C105.612 36.8295 107.836 34.4602 110.717 32.7727C113.614 31.0682 117.049 30.2159 121.021 30.2159C124.992 30.2159 128.418 31.0682 131.299 32.7727C134.197 34.4602 136.43 36.8295 137.998 39.8807C139.566 42.9148 140.35 46.4602 140.35 50.517C140.35 54.5398 139.566 58.0767 137.998 61.1278C136.43 64.1619 134.197 66.5312 131.299 68.2358C128.418 69.9233 124.992 70.767 121.021 70.767ZM121.072 62.3295C122.879 62.3295 124.387 61.8182 125.597 60.7955C126.808 59.7557 127.719 58.3409 128.333 56.5511C128.964 54.7614 129.279 52.7244 129.279 50.4403C129.279 48.1562 128.964 46.1193 128.333 44.3295C127.719 42.5398 126.808 41.125 125.597 40.0852C124.387 39.0455 122.879 38.5256 121.072 38.5256C119.248 38.5256 117.714 39.0455 116.469 40.0852C115.242 41.125 114.313 42.5398 113.683 44.3295C113.069 46.1193 112.762 48.1562 112.762 50.4403C112.762 52.7244 113.069 54.7614 113.683 56.5511C114.313 58.3409 115.242 59.7557 116.469 60.7955C117.714 61.8182 119.248 62.3295 121.072 62.3295Z" fill="#FFBB0E"/>
<path d="M203.887 17.6364V70H192.995V17.6364H203.887Z" fill="#2C951B"/>
<path d="M230.51 70.767C226.47 70.767 222.993 69.9489 220.078 68.3125C217.18 66.6591 214.947 64.3239 213.379 61.3068C211.811 58.2727 211.027 54.6847 211.027 50.5426C211.027 46.5028 211.811 42.9574 213.379 39.9062C214.947 36.8551 217.155 34.4773 220.001 32.7727C222.865 31.0682 226.223 30.2159 230.075 30.2159C232.666 30.2159 235.078 30.6335 237.311 31.4688C239.561 32.2869 241.521 33.5227 243.192 35.1761C244.879 36.8295 246.192 38.9091 247.129 41.4148C248.067 43.9034 248.536 46.8182 248.536 50.1591V53.1506H215.374V46.4006H238.283C238.283 44.8324 237.942 43.4432 237.26 42.233C236.578 41.0227 235.632 40.0767 234.422 39.3949C233.229 38.696 231.839 38.3466 230.254 38.3466C228.601 38.3466 227.135 38.7301 225.857 39.4972C224.595 40.2472 223.607 41.2614 222.891 42.5398C222.175 43.8011 221.808 45.2074 221.791 46.7585V53.1761C221.791 55.1193 222.149 56.7983 222.865 58.2131C223.598 59.6278 224.629 60.7188 225.959 61.4858C227.288 62.2528 228.865 62.6364 230.689 62.6364C231.899 62.6364 233.007 62.4659 234.013 62.125C235.018 61.7841 235.879 61.2727 236.595 60.5909C237.311 59.9091 237.857 59.0739 238.232 58.0852L248.305 58.75C247.794 61.1705 246.746 63.2841 245.161 65.0909C243.592 66.8807 241.564 68.2784 239.075 69.2841C236.604 70.2727 233.749 70.767 230.51 70.767Z" fill="#E42418"/>
<path d="M251.98 27.0348C251.98 26.147 252.097 25.3314 252.332 24.5881C252.568 23.8423 252.92 23.1534 253.386 22.5213H254.597C254.417 22.7557 254.249 23.0433 254.093 23.3842C253.937 23.7228 253.801 24.0945 253.685 24.4993C253.571 24.9018 253.481 25.3196 253.415 25.7528C253.351 26.1861 253.319 26.6134 253.319 27.0348C253.319 27.5959 253.375 28.1641 253.486 28.7393C253.599 29.3146 253.752 29.8473 253.944 30.3374C254.138 30.8298 254.356 31.2322 254.597 31.5447H253.386C252.92 30.9126 252.568 30.2249 252.332 29.4815C252.097 28.7358 251.98 27.9202 251.98 27.0348ZM257.166 30.1101C256.82 30.1101 256.509 30.0485 256.232 29.9254C255.957 29.8 255.739 29.6153 255.578 29.3714C255.42 29.1276 255.34 28.8269 255.34 28.4695C255.34 28.1617 255.397 27.9072 255.511 27.706C255.624 27.5047 255.78 27.3438 255.976 27.223C256.173 27.1023 256.394 27.0111 256.64 26.9496C256.889 26.8857 257.146 26.8395 257.411 26.8111C257.73 26.7779 257.99 26.7483 258.188 26.7223C258.387 26.6939 258.532 26.6513 258.622 26.5945C258.714 26.5353 258.76 26.4441 258.76 26.321V26.2997C258.76 26.0322 258.681 25.825 258.522 25.6783C258.364 25.5315 258.135 25.4581 257.837 25.4581C257.522 25.4581 257.272 25.5268 257.088 25.6641C256.905 25.8014 256.782 25.9635 256.718 26.1506L255.518 25.9801C255.613 25.6487 255.769 25.3717 255.987 25.1491C256.204 24.9242 256.471 24.7562 256.786 24.6449C257.101 24.5312 257.449 24.4744 257.83 24.4744C258.093 24.4744 258.354 24.5052 258.615 24.5668C258.875 24.6283 259.113 24.7301 259.328 24.8722C259.544 25.0118 259.717 25.2024 259.847 25.4439C259.979 25.6854 260.046 25.9872 260.046 26.3494V30H258.81V29.2507H258.767C258.689 29.4022 258.579 29.5443 258.437 29.6768C258.297 29.8071 258.121 29.9124 257.908 29.9929C257.697 30.071 257.45 30.1101 257.166 30.1101ZM257.499 29.1655C257.758 29.1655 257.981 29.1146 258.171 29.0128C258.36 28.9086 258.506 28.7713 258.607 28.6009C258.712 28.4304 258.764 28.2446 258.764 28.0433V27.4006C258.723 27.4337 258.655 27.4645 258.558 27.4929C258.463 27.5213 258.356 27.5462 258.238 27.5675C258.12 27.5888 258.003 27.6077 257.887 27.6243C257.771 27.6409 257.67 27.6551 257.585 27.6669C257.393 27.6929 257.221 27.7356 257.07 27.7947C256.918 27.8539 256.799 27.9368 256.711 28.0433C256.624 28.1475 256.58 28.2824 256.58 28.4482C256.58 28.6849 256.666 28.8636 256.839 28.9844C257.012 29.1051 257.232 29.1655 257.499 29.1655ZM262.624 22.7273V30H261.338V22.7273H262.624ZM263.946 30V24.5455H265.174V25.4723H265.238C265.352 25.1598 265.54 24.916 265.803 24.7408C266.066 24.5632 266.379 24.4744 266.744 24.4744C267.113 24.4744 267.425 24.5644 267.678 24.7443C267.934 24.9219 268.114 25.1645 268.218 25.4723H268.275C268.395 25.1693 268.599 24.9278 268.885 24.7479C269.174 24.5656 269.516 24.4744 269.912 24.4744C270.413 24.4744 270.823 24.633 271.14 24.9503C271.458 25.2675 271.616 25.7304 271.616 26.3388V30H270.327V26.5376C270.327 26.1991 270.237 25.9517 270.057 25.7955C269.877 25.6368 269.657 25.5575 269.397 25.5575C269.087 25.5575 268.844 25.6546 268.669 25.8487C268.496 26.0405 268.409 26.2902 268.409 26.598V30H267.149V26.4844C267.149 26.2027 267.064 25.9777 266.893 25.8097C266.725 25.6416 266.505 25.5575 266.233 25.5575C266.048 25.5575 265.88 25.6049 265.728 25.6996C265.577 25.7919 265.456 25.9233 265.366 26.0938C265.276 26.2618 265.231 26.4583 265.231 26.6832V30H263.946ZM275.3 30.1065C274.767 30.1065 274.305 29.9893 273.915 29.755C273.524 29.5206 273.221 29.1927 273.006 28.7713C272.792 28.3499 272.686 27.8575 272.686 27.294C272.686 26.7306 272.792 26.237 273.006 25.8132C273.221 25.3894 273.524 25.0604 273.915 24.826C274.305 24.5916 274.767 24.4744 275.3 24.4744C275.832 24.4744 276.294 24.5916 276.684 24.826C277.075 25.0604 277.377 25.3894 277.59 25.8132C277.805 26.237 277.913 26.7306 277.913 27.294C277.913 27.8575 277.805 28.3499 277.59 28.7713C277.377 29.1927 277.075 29.5206 276.684 29.755C276.294 29.9893 275.832 30.1065 275.3 30.1065ZM275.307 29.0767C275.595 29.0767 275.837 28.9974 276.031 28.8388C276.225 28.6778 276.37 28.4624 276.464 28.1925C276.561 27.9226 276.61 27.6219 276.61 27.2905C276.61 26.9567 276.561 26.6548 276.464 26.3849C276.37 26.1127 276.225 25.8961 276.031 25.7351C275.837 25.5741 275.595 25.4936 275.307 25.4936C275.011 25.4936 274.765 25.5741 274.568 25.7351C274.374 25.8961 274.228 26.1127 274.131 26.3849C274.037 26.6548 273.989 26.9567 273.989 27.2905C273.989 27.6219 274.037 27.9226 274.131 28.1925C274.228 28.4624 274.374 28.6778 274.568 28.8388C274.765 28.9974 275.011 29.0767 275.307 29.0767ZM283.315 25.9872L282.143 26.1151C282.11 25.9967 282.052 25.8854 281.969 25.7812C281.889 25.6771 281.78 25.593 281.643 25.5291C281.505 25.4652 281.337 25.4332 281.138 25.4332C280.871 25.4332 280.646 25.4912 280.464 25.6072C280.284 25.7232 280.195 25.8736 280.197 26.0582C280.195 26.2169 280.253 26.3459 280.371 26.4453C280.492 26.5447 280.691 26.6264 280.968 26.6903L281.898 26.8892C282.415 27.0005 282.798 27.1768 283.049 27.4183C283.302 27.6598 283.43 27.9759 283.433 28.3665C283.43 28.7098 283.33 29.0128 283.131 29.2756C282.934 29.536 282.661 29.7396 282.31 29.8864C281.96 30.0331 281.558 30.1065 281.103 30.1065C280.435 30.1065 279.898 29.9669 279.491 29.6875C279.084 29.4058 278.841 29.014 278.763 28.5121L280.016 28.3913C280.073 28.6375 280.194 28.8234 280.379 28.9489C280.563 29.0743 280.804 29.1371 281.099 29.1371C281.405 29.1371 281.65 29.0743 281.835 28.9489C282.022 28.8234 282.115 28.6683 282.115 28.4837C282.115 28.3274 282.055 28.1984 281.934 28.0966C281.816 27.9948 281.631 27.9167 281.38 27.8622L280.45 27.6669C279.926 27.558 279.539 27.3745 279.288 27.1165C279.037 26.8561 278.913 26.527 278.915 26.1293C278.913 25.7931 279.004 25.5019 279.189 25.2557C279.376 25.0071 279.635 24.8153 279.967 24.6804C280.3 24.5431 280.685 24.4744 281.121 24.4744C281.76 24.4744 282.263 24.6106 282.63 24.8828C282.999 25.1551 283.228 25.5232 283.315 25.9872ZM287.216 24.5455V25.5398H284.081V24.5455H287.216ZM284.855 23.2386H286.14V28.3594C286.14 28.5322 286.166 28.6648 286.218 28.7571C286.273 28.8471 286.344 28.9086 286.431 28.9418C286.519 28.9749 286.616 28.9915 286.723 28.9915C286.803 28.9915 286.877 28.9856 286.943 28.9737C287.011 28.9619 287.064 28.9512 287.099 28.9418L287.316 29.9467C287.247 29.9704 287.149 29.9964 287.021 30.0249C286.895 30.0533 286.742 30.0698 286.559 30.0746C286.237 30.084 285.947 30.0355 285.689 29.929C285.431 29.8201 285.226 29.652 285.075 29.4247C284.926 29.1974 284.852 28.9134 284.855 28.5724V23.2386ZM290.585 27.0348C290.585 27.9202 290.467 28.7358 290.23 29.4815C289.996 30.2249 289.646 30.9126 289.179 31.5447H287.968C288.151 31.3104 288.319 31.0239 288.472 30.6854C288.629 30.3468 288.764 29.9751 288.877 29.5703C288.993 29.1655 289.083 28.7464 289.147 28.3132C289.213 27.88 289.247 27.4538 289.247 27.0348C289.247 26.4737 289.19 25.9055 289.076 25.3303C288.965 24.755 288.812 24.2211 288.618 23.7287C288.426 23.2363 288.21 22.8338 287.968 22.5213H289.179C289.646 23.1534 289.996 23.8423 290.23 24.5881C290.467 25.3314 290.585 26.147 290.585 27.0348Z" fill="#E42418"/>
</svg>
